<svg xmlns="http://www.w3.org/2000/svg" width="18" height="16" viewBox="0 0 18 16">
    <defs>
        <style>
            .cls-1{fill:none}.cls-2{clip-path:url(#clip-path)}.cls-3{fill:#757575}
        </style>
        <clipPath id="clip-path">
            <path d="M0 0h18v16H0z" class="cls-1"/>
        </clipPath>
    </defs>
    <g id="ic_home_1" class="cls-2" data-name="ic_home – 1">
        <path id="패스_1698" d="M43 80.207a.7.7 0 0 0-.278-.456l-8.283-6.824-.01-.008a.719.719 0 0 0-.842 0h-.005l-8.287 6.828a.7.7 0 0 0-.149.979.721.721 0 0 0 1 .152l1.06-.878v8.079a.709.709 0 0 0 .713.7h4.014a.712.712 0 0 0 .71-.646V83.588a1.36 1.36 0 0 1 2.721 0v4.491a.556.556 0 0 0 0 .057.712.712 0 0 0 .71.647h4.014a.709.709 0 0 0 .713-.7V80l1.055.873.01.008a.72.72 0 0 0 1-.152.691.691 0 0 0 .134-.522zm-8.992.633a2.771 2.771 0 0 0-2.787 2.748v3.788h-2.589v-8.405a.689.689 0 0 0-.014-.14l5.389-4.461 5.393 4.462a.692.692 0 0 0-.014.14v8.405h-2.593v-3.789a2.771 2.771 0 0 0-2.786-2.748z" class="cls-3" data-name="패스 1698" transform="translate(-25.007 -72.783)"/>
    </g>
</svg>
